<svg xmlns="http://www.w3.org/2000/svg" viewBox="0 0 256 256" role="img">
  <defs>
    <linearGradient id="bg" x1="28" y1="28" x2="228" y2="228" gradientUnits="userSpaceOnUse">
      <stop stop-color="#ffffff"/>
      <stop offset=".42" stop-color="#c8f0ff"/>
      <stop offset="1" stop-color="#efe0ff"/>
    </linearGradient>
    <linearGradient id="paper" x1="73" y1="36" x2="184" y2="221" gradientUnits="userSpaceOnUse">
      <stop stop-color="#ffffff"/>
      <stop offset="1" stop-color="#f8fffb"/>
    </linearGradient>
  </defs>
  <rect width="256" height="256" rx="56" fill="url(#bg)"/>
  <circle cx="64" cy="70" r="19" fill="#76f58a"/>
  <circle cx="202" cy="190" r="24" fill="#fff16a"/>
  <path d="M70 38h82l34 36v144H70z" fill="url(#paper)" stroke="#151515" stroke-width="8" stroke-linejoin="round"/>
  <path d="M152 38v36h34" fill="#c8f0ff" stroke="#151515" stroke-width="8" stroke-linejoin="round"/>
  <path d="M88 91h72M88 113h58M88 135h69" stroke="#151515" stroke-width="9" stroke-linecap="round" opacity=".64"/>
  <rect x="87" y="158" width="92" height="38" rx="19" fill="#76f58a" stroke="#151515" stroke-width="5"/>
  <text x="133" y="184" text-anchor="middle" font-family="Arial, Helvetica, sans-serif" font-size="23" font-weight="900" fill="#151515">PDF</text>
  <g transform="translate(190 58) rotate(38)">
    <rect x="-6" y="8" width="12" height="105" rx="6" fill="#151515"/>
    <rect x="-2" y="18" width="4" height="78" rx="2" fill="#fff16a"/>
    <circle cx="0" cy="0" r="13" fill="#ffffff" stroke="#151515" stroke-width="6"/>
  </g>
  <path d="M208 46l5 18 18 5-18 5-5 18-5-18-18-5 18-5z" fill="#76f58a" stroke="#151515" stroke-width="5" stroke-linejoin="round"/>
</svg>
