<svg xmlns="http://www.w3.org/2000/svg" viewBox="0 0 1024 1024" width="1024" height="1024" role="img">
      <defs>
        <linearGradient id="bg" x1="94" y1="92" x2="930" y2="930" gradientUnits="userSpaceOnUse">
          <stop stop-color="#172026"/>
          <stop offset=".55" stop-color="#0f766e"/>
          <stop offset="1" stop-color="#f2b84b"/>
        </linearGradient>
        <filter id="shadow" x="-20%" y="-20%" width="140%" height="140%">
          <feDropShadow dx="0" dy="28" stdDeviation="30" flood-color="#071b21" flood-opacity=".36"/>
        </filter>
      </defs>
      <rect width="1024" height="1024" rx="210" fill="url(#bg)"/>
      <g filter="url(#shadow)">
        <path d="M276 168h342l134 136v552H276z" fill="#fbf8ef"/>
        <path d="M618 168v136h134z" fill="#eadfc9"/>
        <path d="M330 402h366" stroke="#96a7ad" stroke-width="42" stroke-linecap="round"/>
        <path d="M330 508h320" stroke="#b9c4c8" stroke-width="42" stroke-linecap="round"/>
        <path d="M330 614h362" stroke="#b9c4c8" stroke-width="42" stroke-linecap="round"/>
        <path d="M306 724h420" stroke="#0f766e" stroke-width="54" stroke-linecap="round"/>
        <path d="M306 724h420" stroke="#ffffff" stroke-width="14" stroke-linecap="round" stroke-dasharray="38 36" opacity=".75"/>
      </g>
      <g transform="translate(626 166) rotate(39)">
        <rect x="-32" y="4" width="64" height="458" rx="32" fill="#111827"/>
        <rect x="-14" y="30" width="28" height="398" rx="14" fill="#ffd84d"/>
        <circle cx="0" cy="0" r="48" fill="#ffffff"/>
        <circle cx="0" cy="0" r="26" fill="#f2b84b"/>
      </g>
      <rect x="344" y="250" width="232" height="102" rx="30" fill="#e33343"/>
      <text x="460" y="321" text-anchor="middle" font-family="Arial, Helvetica, sans-serif" font-size="64" font-weight="900" fill="#fff">PDF</text>
      <path d="M784 210l20 52 52 20-52 20-20 52-20-52-52-20 52-20z" fill="#fff7be"/>
      <path d="M206 258l14 36 36 14-36 14-14 36-14-36-36-14 36-14z" fill="#fff7be"/>
    </svg>
